<?xml version="1.0" encoding="utf-8"?>
<!-- Generator: Adobe Illustrator 15.1.0, SVG Export Plug-In . SVG Version: 6.00 Build 0)  -->
<!DOCTYPE svg PUBLIC "-//W3C//DTD SVG 1.1//EN" "http://www.w3.org/Graphics/SVG/1.1/DTD/svg11.dtd">
<svg version="1.1" id="Layer_1" xmlns="http://www.w3.org/2000/svg" xmlns:xlink="http://www.w3.org/1999/xlink" x="0px" y="0px"
	 width="500px" height="500px" viewBox="0 0 500 500" enable-background="new 0 0 500 500" xml:space="preserve">
<circle fill="#4D4D4D" cx="250" cy="250" r="250"/>
<g>
	<defs>
		<circle id="SVGID_1_" cx="250" cy="250" r="250"/>
	</defs>
	<clipPath id="SVGID_2_">
		<use xlink:href="#SVGID_1_"  display="none" overflow="visible"/>
	</clipPath>
	<g clip-path="url(#SVGID_2_)">
		<path fill="#CCCCCC" d="M235.396,365.354H168.54l-50.689-79.459h-0.547v79.459H63.6V158.76h80.281
			c40.825,0,71.787,19.454,71.787,63.567c0,28.496-15.892,53.156-45.21,58.361L235.396,365.354z M117.304,251.371h5.205
			c17.536,0,37.263-3.288,37.263-25.756s-19.727-25.756-37.263-25.756h-5.205V251.371z"/>
		<path fill="#FFFFFF" d="M455.961,250.001c-0.547,30.14-2.739,55.896-21.098,81.651c-20.276,28.221-50.689,40.551-85.214,40.551
			c-64.937,0-110.146-44.112-110.146-109.05c0-67.13,45.483-111.244,112.065-111.244c42.47,0,75.35,19.18,93.159,57.814
			l-50.964,21.371c-7.397-19.728-23.016-32.879-44.661-32.879c-35.347,0-53.703,33.702-53.703,65.211
			c0,32.058,19.18,64.664,54.525,64.664c23.289,0,41.1-12.057,43.291-35.894h-43.84v-42.196H455.961z"/>
	</g>
	<g clip-path="url(#SVGID_2_)">
		<g>
			<defs>
				<rect id="SVGID_3_" x="-6" y="140" width="123" height="307"/>
			</defs>
			<clipPath id="SVGID_4_">
				<use xlink:href="#SVGID_3_"  overflow="visible"/>
			</clipPath>
			<path clip-path="url(#SVGID_4_)" fill="#F2F2F2" d="M235.649,365.279h-66.855l-50.689-79.459h-0.548v79.459H63.853V158.686
				h80.282c40.825,0,71.787,19.454,71.787,63.567c0,28.496-15.893,53.156-45.21,58.362L235.649,365.279z M117.556,251.297h5.207
				c17.535,0,37.263-3.288,37.263-25.755c0-22.468-19.728-25.756-37.263-25.756h-5.207V251.297z"/>
		</g>
		<g>
			<defs>
				<rect id="SVGID_5_" x="349" y="145" width="135" height="245"/>
			</defs>
			<clipPath id="SVGID_6_">
				<use xlink:href="#SVGID_5_"  overflow="visible"/>
			</clipPath>
			<path clip-path="url(#SVGID_6_)" fill="#CCCCCC" d="M456.215,249.927c-0.548,30.14-2.739,55.896-21.098,81.651
				c-20.276,28.222-50.689,40.551-85.214,40.551c-64.937,0-110.146-44.112-110.146-109.051c0-67.128,45.483-111.242,112.065-111.242
				c42.469,0,75.35,19.18,93.158,57.813l-50.963,21.372c-7.397-19.728-23.016-32.879-44.662-32.879
				c-35.346,0-53.702,33.702-53.702,65.21c0,32.059,19.18,64.665,54.525,64.665c23.289,0,41.1-12.056,43.291-35.894h-43.84v-42.196
				H456.215z"/>
		</g>
	</g>
</g>
</svg>
